<svg xmlns="http://www.w3.org/2000/svg" width="106" height="79" fill="none"><path fill="#026DFE" d="M103.513 22.996H91.118l-3.445-8.541C84.133 5.672 75.683 0 66.146 0H39.853c-9.536 0-17.987 5.673-21.53 14.454l-3.444 8.542H2.486c-1.617 0-2.804 1.507-2.41 3.061l1.242 4.928a2.48 2.48 0 0 0 2.41 1.866h4.155c-2.78 2.409-4.571 5.91-4.571 9.855v9.856c0 3.31 1.275 6.297 3.312 8.609v11.101c0 3.628 2.967 6.57 6.625 6.57h6.625c3.659 0 6.625-2.942 6.625-6.57v-6.57h53v6.57c0 3.628 2.967 6.57 6.625 6.57h6.625c3.659 0 6.625-2.942 6.625-6.57V61.171c2.038-2.31 3.313-5.297 3.313-8.61v-9.855c0-3.946-1.791-7.447-4.57-9.855h4.156a2.48 2.48 0 0 0 2.41-1.866l1.242-4.928c.391-1.554-.795-3.061-2.412-3.061Zm-72.888-3.661c1.51-3.741 5.164-6.195 9.228-6.195h26.293c4.064 0 7.718 2.454 9.227 6.195L79.5 29.566h-53l4.126-10.231ZM19.875 52.52c-3.976 0-6.626-2.62-6.626-6.55 0-3.93 2.65-6.55 6.625-6.55s9.938 5.895 9.938 9.825c0 3.93-5.963 3.275-9.938 3.275Zm66.25 0c-3.976 0-9.938.655-9.938-3.275 0-3.93 5.962-9.825 9.937-9.825 3.975 0 6.625 2.62 6.625 6.55 0 3.93-2.65 6.55-6.625 6.55Z"/></svg>