<svg width="124" height="126" fill="none" xmlns="http://www.w3.org/2000/svg"><path d="M93.828 47.023H64.604V60.74c0 9.724-6.21 17.635-13.843 17.635-7.632 0-13.842-7.911-13.842-17.635V30.955L24.44 40.508c-3.71 2.816-5.98 7.936-5.98 13.422v11.586L3.082 76.832C.139 78.988-.88 83.79.83 87.536l15.381 33.949c1.692 3.747 5.46 5.021 8.402 2.865l19.88-14.622h26.263c6.786 0 12.304-7.03 12.304-15.677h3.077c3.403 0 6.152-3.502 6.152-7.838V70.537h1.538c2.557 0 4.614-2.62 4.614-5.878V52.902c0-3.258-2.057-5.879-4.614-5.879Zm28.397-9.16-15.381-33.95c-1.692-3.747-5.46-5.02-8.402-2.865L78.562 15.67H58.913c-2.307 0-4.556.833-6.517 2.376l-6.441 5.119c-1.807 1.42-2.884 3.944-2.884 6.638V60.74c0 5.413 3.441 9.797 7.69 9.797 4.25 0 7.69-4.384 7.69-9.797V39.185h35.377c5.94 0 10.767 6.148 10.767 13.717v6.98l15.381-11.316c2.941-2.18 3.941-6.956 2.249-10.704Z" fill="#026DFE"/></svg>